PathFileType	4	(X/Y/Z)	KinectAzureSkeleton.trc
DateRate	CameraRate	NumFrames	NumMarkers	Units	OrigDateRate	OrigDataStartFrame	OrigNumFrames
30	30	8	32	mm	30	138	183
Frame#	Time			PELVIS			SPINE_NAVAL			SPINE_CHEST			NECK			CLAVICLE_LEFT			SHOULDER_LEFT			ELBOW_LEFT			WRIST_LEFT			HAND_LEFT			HANDTIP_LEFT			THUMB_LEFT			CLAVICLE_RIGHT			SHOULDER_RIGHT			ELBOW_RIGHT			WRIST_RIGHT			HAND_RIGHT			HANDTIP_RIGHT			THUMB_RIGHT			HIP_LEFT			KNEE_LEFT			ANKLE_LEFT			FOOT_LEFT			HIP_RIGHT			KNEE_RIGHT			ANKLE_RIGHT			FOOT_RIGHT			HEAD			NOSE			EYE_LEFT			EAR_LEFT			EYE_RIGHT			EAR_RIGHT
		X1	Y1	Z1	X2	Y2	Z2	X3	Y3	Z3	X4	Y4	Z4	X5	Y5	Z5	X6	Y6	Z6	X7	Y7	Z7	X8	Y8	Z8	X9	Y9	Z9	X10	Y10	Z10	X11	Y11	Z11	X12	Y12	Z12	X13	Y13	Z13	X14	Y14	Z14	X15	Y15	Z15	X16	Y16	Z16	X17	Y17	Z17	X18	Y18	Z18	X19	Y19	Z19	X20	Y20	Z20	X21	Y21	Z21	X22	Y22	Z22	X23	Y23	Z23	X24	Y24	Z24	X25	Y25	Z25	X26	Y26	Z26	X27	Y27	Z27	X28	Y28	Z28	X29	Y29	Z29	X30	Y30	Z30	X31	Y31	Z31	X32	Y32	Z32

137	4.617733	-1977.872314	-6.513879	71.837891	-1979.945801	175.344360	68.877892	-1995.165649	319.779144	61.631039	-2018.303833	539.090820	42.581509	-2024.778564	501.517365	22.504532	-1997.059082	472.841553	-117.679726	-1997.020020	194.944534	-164.086380	-1930.439941	-31.370670	-180.431061	-1946.522705	-126.443428	-198.894180	-1987.142822	-212.116867	-142.799347	-1925.027466	-174.114212	-141.757828	-2027.641724	504.128510	74.456055	-1995.108032	490.237915	203.787003	-2004.789063	212.634354	276.277527	-1900.827759	-1.971349	298.181458	-1964.638184	-84.776405	313.853790	-1909.144775	-160.624725	260.060730	-1922.966064	-150.890625	303.578278	-1973.668945	-7.977362	-21.020123	-1882.604126	-405.802032	-14.765937	-1898.229004	-795.506104	-7.940269	-1727.343872	-880.505981	-0.516128	-1981.661743	-5.197507	155.572113	-1962.026367	-411.959564	175.492966	-2284.541016	-637.326599	151.570831	-2317.344971	-809.908875	146.976028	-1994.996460	618.940735	38.460033	-1859.850098	711.117493	47.368553	-1892.458740	728.740417	3.979114	-1992.129517	682.764404	-64.268608	-1897.987671	735.576172	74.383896	-2014.990112	699.248657	127.630409
138	4.651066	-1947.318115	-4.960919	66.966164	-1950.239380	175.839020	63.219307	-1965.414673	319.415771	55.358368	-1985.785400	537.431091	33.088131	-1992.423096	499.863159	13.585307	-1964.874512	471.095490	-125.754181	-1955.093750	195.104813	-172.826447	-1876.315674	-26.134119	-184.375244	-1895.103027	-117.921989	-211.786209	-1953.233154	-202.499069	-173.486511	-1890.696289	-169.566315	-154.824005	-1995.798828	503.226105	65.166016	-1966.295898	494.949646	194.918060	-1988.390625	221.771301	274.701782	-1895.577881	3.775537	298.329620	-1943.505615	-88.889442	311.127777	-1981.276855	-188.265991	294.065063	-1895.092407	-145.589310	286.956757	-1942.777100	-6.800489	-25.341190	-1870.452026	-406.064850	-17.047308	-1893.973267	-793.146423	-9.748537	-1729.659790	-887.965088	-0.826380	-1951.411865	-3.305388	150.203888	-1879.147827	-401.542786	173.486343	-2202.570801	-621.739624	150.434967	-2268.896729	-783.376160	147.790863	-1961.684326	616.502197	28.123352	-1830.108398	711.337097	43.320507	-1861.279175	728.620422	-0.831252	-1956.507690	681.363708	-73.047226	-1869.639893	734.350220	68.985992	-1986.980591	694.654236	116.923195
139	4.684400	-1914.657349	-3.127957	63.432426	-1922.517578	177.042709	58.439976	-1939.022095	320.071564	49.923977	-1958.492065	537.522644	26.769823	-1965.367065	499.986389	7.524638	-1934.168091	473.635895	-131.146210	-1919.515869	198.236435	-176.220642	-1825.100098	-16.328304	-183.849213	-1840.568848	-105.784592	-219.064789	-1891.996582	-198.756607	-193.552979	-1831.210083	-162.084732	-167.641052	-1968.481934	503.599182	58.975094	-1941.292480	499.081940	189.076126	-1971.215942	227.565292	269.433289	-1894.320557	4.566833	297.198730	-1939.617676	-84.722488	328.314575	-1939.439819	-173.776169	268.271698	-1904.673706	-144.402359	291.851318	-1911.644287	-5.549257	-28.693184	-1861.580444	-407.168640	-19.399483	-1893.989746	-792.563538	-8.942069	-1730.969727	-888.787598	-1.546456	-1917.373169	-0.947819	146.506271	-1830.910767	-395.126221	172.693649	-2151.167725	-617.869385	146.695053	-2203.979248	-783.959717	144.400635	-1934.129272	616.265686	21.332067	-1801.228149	707.985107	39.482281	-1831.433594	726.497314	-4.660530	-1926.453491	682.344604	-78.527084	-1840.507813	731.340820	64.956787	-1958.892090	693.384155	110.772903
140	4.717733	-1888.379761	2.849180	58.222584	-1894.021118	182.598862	52.488155	-1911.043579	325.137726	43.312790	-1932.270142	541.956970	21.356537	-1938.727783	504.570648	1.928544	-1905.149780	479.664734	-136.050232	-1879.333862	205.790039	-180.783829	-1780.490845	-6.191969	-184.091827	-1778.576172	-96.716354	-219.205475	-1846.953979	-177.129562	-192.113388	-1791.070679	-151.168732	-166.774155	-1942.056885	507.858765	53.248852	-1914.057861	503.361877	182.815369	-1949.839600	233.512970	263.704132	-1887.674683	7.329062	296.684784	-1913.312012	-88.253120	330.460236	-1941.905029	-181.049118	285.232269	-1894.182983	-140.021957	275.380066	-1885.440674	0.010559	-33.647137	-1849.876953	-402.025604	-22.724432	-1897.512451	-784.704590	-9.359013	-1741.012451	-890.305664	-1.998148	-1891.029053	5.405632	141.065689	-1780.430420	-381.275818	171.260162	-2084.337402	-623.867859	142.456543	-2116.277832	-794.742493	142.198181	-1908.639771	620.727905	16.463051	-1772.759644	707.014709	35.304531	-1802.051147	726.812805	-8.702449	-1898.237427	686.752869	-82.798866	-1811.084839	731.661926	60.729942	-1930.619751	698.109070	105.970261
141	4.751066	-1865.748291	7.353093	55.351974	-1872.742920	187.158371	49.621658	-1888.971924	329.889893	40.717453	-1906.609497	547.364807	20.927519	-1914.003784	510.253418	1.254464	-1879.589844	484.907654	-136.524292	-1843.778076	212.443466	-183.901215	-1729.574219	8.362964	-193.307053	-1714.087280	-86.405457	-208.179596	-1779.613525	-173.414749	-203.171814	-1747.398682	-132.314178	-156.607544	-1916.579468	513.143494	52.671597	-1887.699219	509.531128	182.150040	-1931.801636	239.269287	257.962585	-1883.260742	10.299415	295.273987	-1896.789551	-87.716980	329.278046	-1925.326050	-183.017746	289.393341	-1882.179932	-136.708710	270.345215	-1864.496460	4.471081	-36.607502	-1840.899536	-398.666626	-25.346857	-1897.086060	-780.281433	-8.778378	-1740.561890	-886.281799	-7.054451	-1866.875977	9.948677	138.276001	-1731.113647	-368.832123	169.034134	-2010.244141	-640.174744	143.085449	-2018.882935	-813.865295	146.231857	-1881.623413	625.787354	16.392767	-1737.768311	700.189514	24.384809	-1768.837280	722.971130	-16.918114	-1873.917114	692.078491	-83.020096	-1771.661255	727.626831	53.095890	-1889.520874	703.568848	107.971939
142	4.784400	-1838.927979	9.865818	50.163975	-1846.801514	190.275223	45.406101	-1863.966675	333.445801	37.442966	-1881.806519	551.749207	18.736931	-1889.278198	514.608398	-1.164341	-1852.725098	486.544403	-138.377914	-1814.388672	213.371628	-185.279236	-1683.785645	18.197329	-186.809479	-1687.781494	-78.867661	-195.100586	-1597.055786	-140.012497	-194.439209	-1752.254517	-110.398201	-167.424744	-1891.692505	517.249023	50.449535	-1862.539429	510.620483	180.209915	-1914.664185	240.676529	255.685150	-1865.205200	10.957569	292.301056	-1881.145508	-85.604767	330.282715	-1914.669800	-178.717224	288.191162	-1871.010010	-137.201477	272.289886	-1839.242676	7.418079	-42.128620	-1833.537842	-397.714294	-29.917870	-1896.949707	-779.277405	-8.381443	-1742.744995	-888.980835	-21.343493	-1838.643066	12.069792	133.388351	-1685.416138	-361.648987	161.953659	-1935.892456	-661.566467	138.279388	-1917.351318	-835.099854	137.218658	-1856.778320	630.468994	14.497579	-1708.290039	696.298706	24.006411	-1737.560181	720.884827	-17.835003	-1843.924316	696.126465	-85.293327	-1740.895264	725.909363	52.370354	-1861.007690	709.099609	106.132996
143	4.817733	-1813.471802	9.955989	45.403484	-1820.311035	190.515259	40.497566	-1836.296509	333.916748	32.616875	-1854.228638	552.437622	14.971932	-1861.887695	515.360352	-5.033348	-1828.480225	482.051239	-141.969818	-1777.735718	210.705872	-188.726257	-1639.563110	20.634830	-190.126068	-1661.834961	-74.341507	-191.359726	-1557.669312	-105.990898	-179.831757	-1729.447510	-91.469772	-158.811493	-1863.861938	517.785889	46.641796	-1838.230103	509.932465	177.159348	-1895.843872	241.181366	253.560364	-1845.586792	11.559546	290.649170	-1874.841797	-83.620430	324.108185	-1909.996460	-179.028061	288.875885	-1857.548828	-136.020081	268.512177	-1815.571777	7.367986	-46.918961	-1826.240479	-397.825439	-32.043095	-1899.515259	-777.670166	-7.355977	-1742.868164	-883.045776	-26.954302	-1811.577026	12.286438	128.654770	-1642.067993	-354.870148	153.664749	-1855.398315	-683.157898	141.175903	-1806.128418	-850.345825	151.994049	-1829.194092	631.215149	10.847965	-1681.174683	696.932983	27.487226	-1708.793701	722.292114	-15.056712	-1812.423706	698.738159	-87.190697	-1714.934082	726.028503	55.083351	-1837.153931	708.196716	103.725403
144	4.851066	-1787.875000	9.142507	42.131500	-1795.904053	190.668808	38.676723	-1811.894775	334.918732	31.952663	-1827.414307	554.775269	13.696259	-1835.467163	517.542297	-6.364154	-1801.498901	481.741821	-143.367828	-1749.172607	208.930252	-188.960663	-1599.707275	25.997818	-184.758057	-1637.275635	-64.541000	-188.366348	-1534.640503	-102.562141	-176.705475	-1706.894043	-71.499634	-155.297073	-1837.588623	520.113281	45.579762	-1810.503174	510.799713	176.447708	-1874.804321	242.162766	253.707886	-1831.391357	9.054303	285.641846	-1849.772705	-84.446709	331.187500	-1886.708252	-172.434540	280.199646	-1843.633667	-140.683807	276.395325	-1790.376953	7.265103	-50.699921	-1819.356445	-399.201691	-34.798466	-1897.013550	-780.336914	-10.264434	-1743.993164	-892.455017	-31.071444	-1785.617920	10.832166	125.841721	-1613.215576	-357.685760	146.383789	-1769.537720	-719.019897	135.885651	-1699.657227	-879.820068	145.289001	-1801.348267	633.685730	9.464622	-1651.676392	697.201660	28.388752	-1678.100098	722.662109	-15.251397	-1781.245483	699.992371	-89.574989	-1685.613159	727.428955	55.078171	-1809.765991	712.401550	101.702461
